<mxfile host="app.diagrams.net" modified="2022-02-24T15:58:18.380Z" agent="5.0 (Windows)" etag="AD8Vw0jcgNz6bxJlX4_v" version="16.6.3" type="github">
  <diagram id="zOlCcA-92T-VcKjqOryV" name="Page-1">
    <mxGraphModel dx="1751" dy="973" grid="1" gridSize="10" guides="1" tooltips="1" connect="1" arrows="1" fold="1" page="1" pageScale="1" pageWidth="827" pageHeight="1169" math="0" shadow="0">
      <root>
        <mxCell id="0" />
        <mxCell id="1" parent="0" />
        <mxCell id="s-o-5gXYuguMBwGhF1Fa-25" style="edgeStyle=orthogonalEdgeStyle;rounded=0;orthogonalLoop=1;jettySize=auto;html=1;exitX=0.5;exitY=1;exitDx=0;exitDy=0;entryX=0.5;entryY=0;entryDx=0;entryDy=0;" parent="1" source="s-o-5gXYuguMBwGhF1Fa-1" target="s-o-5gXYuguMBwGhF1Fa-12" edge="1">
          <mxGeometry relative="1" as="geometry" />
        </mxCell>
        <mxCell id="s-o-5gXYuguMBwGhF1Fa-26" style="edgeStyle=orthogonalEdgeStyle;rounded=0;orthogonalLoop=1;jettySize=auto;html=1;exitX=0;exitY=0.5;exitDx=0;exitDy=0;entryX=0.5;entryY=0;entryDx=0;entryDy=0;" parent="1" source="s-o-5gXYuguMBwGhF1Fa-1" target="s-o-5gXYuguMBwGhF1Fa-10" edge="1">
          <mxGeometry relative="1" as="geometry" />
        </mxCell>
        <mxCell id="s-o-5gXYuguMBwGhF1Fa-29" style="edgeStyle=orthogonalEdgeStyle;rounded=0;orthogonalLoop=1;jettySize=auto;html=1;entryX=0.5;entryY=0;entryDx=0;entryDy=0;" parent="1" source="s-o-5gXYuguMBwGhF1Fa-1" target="s-o-5gXYuguMBwGhF1Fa-2" edge="1">
          <mxGeometry relative="1" as="geometry" />
        </mxCell>
        <mxCell id="s-o-5gXYuguMBwGhF1Fa-30" style="edgeStyle=orthogonalEdgeStyle;rounded=0;orthogonalLoop=1;jettySize=auto;html=1;entryX=0.5;entryY=0;entryDx=0;entryDy=0;" parent="1" source="s-o-5gXYuguMBwGhF1Fa-1" target="s-o-5gXYuguMBwGhF1Fa-4" edge="1">
          <mxGeometry relative="1" as="geometry" />
        </mxCell>
        <mxCell id="s-o-5gXYuguMBwGhF1Fa-31" style="edgeStyle=orthogonalEdgeStyle;rounded=0;orthogonalLoop=1;jettySize=auto;html=1;entryX=0.5;entryY=0;entryDx=0;entryDy=0;" parent="1" source="s-o-5gXYuguMBwGhF1Fa-1" target="s-o-5gXYuguMBwGhF1Fa-23" edge="1">
          <mxGeometry relative="1" as="geometry" />
        </mxCell>
        <mxCell id="s-o-5gXYuguMBwGhF1Fa-32" style="edgeStyle=orthogonalEdgeStyle;rounded=0;orthogonalLoop=1;jettySize=auto;html=1;entryX=0.5;entryY=0;entryDx=0;entryDy=0;" parent="1" source="s-o-5gXYuguMBwGhF1Fa-1" target="s-o-5gXYuguMBwGhF1Fa-3" edge="1">
          <mxGeometry relative="1" as="geometry" />
        </mxCell>
        <mxCell id="s-o-5gXYuguMBwGhF1Fa-33" style="edgeStyle=orthogonalEdgeStyle;rounded=0;orthogonalLoop=1;jettySize=auto;html=1;entryX=0.5;entryY=0;entryDx=0;entryDy=0;" parent="1" source="s-o-5gXYuguMBwGhF1Fa-1" target="s-o-5gXYuguMBwGhF1Fa-24" edge="1">
          <mxGeometry relative="1" as="geometry" />
        </mxCell>
        <mxCell id="s-o-5gXYuguMBwGhF1Fa-1" value="Home(Index)" style="rounded=0;whiteSpace=wrap;html=1;" parent="1" vertex="1">
          <mxGeometry x="354" y="10" width="120" height="60" as="geometry" />
        </mxCell>
        <mxCell id="s-o-5gXYuguMBwGhF1Fa-2" value="Login" style="rounded=0;whiteSpace=wrap;html=1;" parent="1" vertex="1">
          <mxGeometry x="50" y="120" width="120" height="60" as="geometry" />
        </mxCell>
        <mxCell id="s-o-5gXYuguMBwGhF1Fa-34" style="edgeStyle=orthogonalEdgeStyle;rounded=0;orthogonalLoop=1;jettySize=auto;html=1;entryX=0.5;entryY=0;entryDx=0;entryDy=0;" parent="1" target="s-o-5gXYuguMBwGhF1Fa-8" edge="1">
          <mxGeometry relative="1" as="geometry">
            <mxPoint x="910" y="190" as="sourcePoint" />
            <Array as="points">
              <mxPoint x="870" y="190" />
              <mxPoint x="1150" y="190" />
            </Array>
          </mxGeometry>
        </mxCell>
        <mxCell id="s-o-5gXYuguMBwGhF1Fa-35" style="edgeStyle=orthogonalEdgeStyle;rounded=0;orthogonalLoop=1;jettySize=auto;html=1;entryX=0.5;entryY=0;entryDx=0;entryDy=0;" parent="1" source="s-o-5gXYuguMBwGhF1Fa-3" target="s-o-5gXYuguMBwGhF1Fa-9" edge="1">
          <mxGeometry relative="1" as="geometry">
            <Array as="points">
              <mxPoint x="930" y="190" />
              <mxPoint x="1007" y="190" />
            </Array>
          </mxGeometry>
        </mxCell>
        <mxCell id="s-o-5gXYuguMBwGhF1Fa-36" style="edgeStyle=orthogonalEdgeStyle;rounded=0;orthogonalLoop=1;jettySize=auto;html=1;entryX=0.5;entryY=0;entryDx=0;entryDy=0;" parent="1" source="s-o-5gXYuguMBwGhF1Fa-3" target="s-o-5gXYuguMBwGhF1Fa-7" edge="1">
          <mxGeometry relative="1" as="geometry">
            <Array as="points">
              <mxPoint x="780" y="190" />
              <mxPoint x="570" y="190" />
            </Array>
          </mxGeometry>
        </mxCell>
        <mxCell id="s-o-5gXYuguMBwGhF1Fa-37" style="edgeStyle=orthogonalEdgeStyle;rounded=0;orthogonalLoop=1;jettySize=auto;html=1;entryX=0.5;entryY=0;entryDx=0;entryDy=0;" parent="1" source="s-o-5gXYuguMBwGhF1Fa-3" target="s-o-5gXYuguMBwGhF1Fa-5" edge="1">
          <mxGeometry relative="1" as="geometry">
            <Array as="points">
              <mxPoint x="780" y="190" />
              <mxPoint x="1000" y="190" />
            </Array>
          </mxGeometry>
        </mxCell>
        <mxCell id="8t-ISdGKPEdPAOQoRQgy-18" style="edgeStyle=orthogonalEdgeStyle;rounded=0;orthogonalLoop=1;jettySize=auto;html=1;fontColor=#EA6B66;" edge="1" parent="1" source="s-o-5gXYuguMBwGhF1Fa-3" target="8t-ISdGKPEdPAOQoRQgy-17">
          <mxGeometry relative="1" as="geometry">
            <Array as="points">
              <mxPoint x="930" y="190" />
              <mxPoint x="1301" y="190" />
            </Array>
          </mxGeometry>
        </mxCell>
        <mxCell id="s-o-5gXYuguMBwGhF1Fa-3" value="&lt;div&gt;My Account&lt;/div&gt;" style="rounded=0;whiteSpace=wrap;html=1;" parent="1" vertex="1">
          <mxGeometry x="870" y="120" width="120" height="60" as="geometry" />
        </mxCell>
        <mxCell id="s-o-5gXYuguMBwGhF1Fa-4" value="Sign Up" style="rounded=0;whiteSpace=wrap;html=1;" parent="1" vertex="1">
          <mxGeometry x="-100" y="120" width="120" height="60" as="geometry" />
        </mxCell>
        <mxCell id="s-o-5gXYuguMBwGhF1Fa-5" value="Add Gallery" style="rounded=0;whiteSpace=wrap;html=1;" parent="1" vertex="1">
          <mxGeometry x="800" y="240" width="120" height="60" as="geometry" />
        </mxCell>
        <mxCell id="s-o-5gXYuguMBwGhF1Fa-6" value="Add Piece" style="rounded=0;whiteSpace=wrap;html=1;" parent="1" vertex="1">
          <mxGeometry x="510" y="350" width="120" height="60" as="geometry" />
        </mxCell>
        <mxCell id="s-o-5gXYuguMBwGhF1Fa-7" value="View Posts" style="rounded=0;whiteSpace=wrap;html=1;" parent="1" vertex="1">
          <mxGeometry x="660" y="240" width="120" height="60" as="geometry" />
        </mxCell>
        <mxCell id="s-o-5gXYuguMBwGhF1Fa-8" value="Manage Users" style="rounded=0;whiteSpace=wrap;html=1;" parent="1" vertex="1">
          <mxGeometry x="1090" y="240" width="120" height="60" as="geometry" />
        </mxCell>
        <mxCell id="s-o-5gXYuguMBwGhF1Fa-9" value="Edit Details" style="rounded=0;whiteSpace=wrap;html=1;" parent="1" vertex="1">
          <mxGeometry x="947" y="240" width="120" height="60" as="geometry" />
        </mxCell>
        <mxCell id="s-o-5gXYuguMBwGhF1Fa-19" style="edgeStyle=orthogonalEdgeStyle;rounded=0;orthogonalLoop=1;jettySize=auto;html=1;exitX=0.5;exitY=1;exitDx=0;exitDy=0;entryX=0.5;entryY=0;entryDx=0;entryDy=0;" parent="1" source="s-o-5gXYuguMBwGhF1Fa-10" target="s-o-5gXYuguMBwGhF1Fa-11" edge="1">
          <mxGeometry relative="1" as="geometry" />
        </mxCell>
        <mxCell id="s-o-5gXYuguMBwGhF1Fa-10" value="Categories" style="rounded=0;whiteSpace=wrap;html=1;" parent="1" vertex="1">
          <mxGeometry x="200" y="120" width="120" height="60" as="geometry" />
        </mxCell>
        <mxCell id="s-o-5gXYuguMBwGhF1Fa-20" style="edgeStyle=orthogonalEdgeStyle;rounded=0;orthogonalLoop=1;jettySize=auto;html=1;exitX=0.5;exitY=1;exitDx=0;exitDy=0;entryX=0;entryY=0.5;entryDx=0;entryDy=0;" parent="1" source="s-o-5gXYuguMBwGhF1Fa-11" target="s-o-5gXYuguMBwGhF1Fa-15" edge="1">
          <mxGeometry relative="1" as="geometry" />
        </mxCell>
        <mxCell id="s-o-5gXYuguMBwGhF1Fa-11" value="Category" style="rounded=0;whiteSpace=wrap;html=1;" parent="1" vertex="1">
          <mxGeometry x="200" y="240" width="120" height="60" as="geometry" />
        </mxCell>
        <mxCell id="s-o-5gXYuguMBwGhF1Fa-14" value="" style="edgeStyle=orthogonalEdgeStyle;rounded=0;orthogonalLoop=1;jettySize=auto;html=1;" parent="1" source="s-o-5gXYuguMBwGhF1Fa-12" target="s-o-5gXYuguMBwGhF1Fa-13" edge="1">
          <mxGeometry relative="1" as="geometry" />
        </mxCell>
        <mxCell id="s-o-5gXYuguMBwGhF1Fa-12" value="Galleries" style="rounded=0;whiteSpace=wrap;html=1;" parent="1" vertex="1">
          <mxGeometry x="354" y="120" width="120" height="60" as="geometry" />
        </mxCell>
        <mxCell id="s-o-5gXYuguMBwGhF1Fa-18" style="edgeStyle=orthogonalEdgeStyle;rounded=0;orthogonalLoop=1;jettySize=auto;html=1;exitX=0.5;exitY=1;exitDx=0;exitDy=0;" parent="1" source="s-o-5gXYuguMBwGhF1Fa-13" target="s-o-5gXYuguMBwGhF1Fa-15" edge="1">
          <mxGeometry relative="1" as="geometry" />
        </mxCell>
        <mxCell id="s-o-5gXYuguMBwGhF1Fa-21" style="edgeStyle=orthogonalEdgeStyle;rounded=0;orthogonalLoop=1;jettySize=auto;html=1;entryX=0.5;entryY=0;entryDx=0;entryDy=0;exitX=0.5;exitY=1;exitDx=0;exitDy=0;" parent="1" source="s-o-5gXYuguMBwGhF1Fa-13" target="s-o-5gXYuguMBwGhF1Fa-6" edge="1">
          <mxGeometry relative="1" as="geometry">
            <Array as="points">
              <mxPoint x="414" y="320" />
              <mxPoint x="570" y="320" />
            </Array>
          </mxGeometry>
        </mxCell>
        <mxCell id="8t-ISdGKPEdPAOQoRQgy-4" style="edgeStyle=orthogonalEdgeStyle;rounded=0;orthogonalLoop=1;jettySize=auto;html=1;exitX=1;exitY=0.5;exitDx=0;exitDy=0;entryX=0;entryY=0.5;entryDx=0;entryDy=0;" edge="1" parent="1" source="s-o-5gXYuguMBwGhF1Fa-13" target="8t-ISdGKPEdPAOQoRQgy-3">
          <mxGeometry relative="1" as="geometry" />
        </mxCell>
        <mxCell id="s-o-5gXYuguMBwGhF1Fa-13" value="Gallery" style="rounded=0;whiteSpace=wrap;html=1;" parent="1" vertex="1">
          <mxGeometry x="354" y="240" width="120" height="60" as="geometry" />
        </mxCell>
        <mxCell id="s-o-5gXYuguMBwGhF1Fa-17" value="" style="edgeStyle=orthogonalEdgeStyle;rounded=0;orthogonalLoop=1;jettySize=auto;html=1;" parent="1" source="s-o-5gXYuguMBwGhF1Fa-15" target="s-o-5gXYuguMBwGhF1Fa-16" edge="1">
          <mxGeometry relative="1" as="geometry" />
        </mxCell>
        <mxCell id="s-o-5gXYuguMBwGhF1Fa-15" value="Piece" style="rounded=0;whiteSpace=wrap;html=1;" parent="1" vertex="1">
          <mxGeometry x="354" y="350" width="120" height="60" as="geometry" />
        </mxCell>
        <mxCell id="s-o-5gXYuguMBwGhF1Fa-16" value="Add Review" style="rounded=0;whiteSpace=wrap;html=1;" parent="1" vertex="1">
          <mxGeometry x="354" y="460" width="120" height="60" as="geometry" />
        </mxCell>
        <mxCell id="s-o-5gXYuguMBwGhF1Fa-23" value="About" style="rounded=0;whiteSpace=wrap;html=1;" parent="1" vertex="1">
          <mxGeometry x="510" y="120" width="120" height="60" as="geometry" />
        </mxCell>
        <mxCell id="s-o-5gXYuguMBwGhF1Fa-24" value="Contact Us" style="rounded=0;whiteSpace=wrap;html=1;" parent="1" vertex="1">
          <mxGeometry x="660" y="120" width="120" height="60" as="geometry" />
        </mxCell>
        <mxCell id="8t-ISdGKPEdPAOQoRQgy-1" style="edgeStyle=orthogonalEdgeStyle;rounded=0;orthogonalLoop=1;jettySize=auto;html=1;exitX=0.5;exitY=1;exitDx=0;exitDy=0;" edge="1" parent="1" source="s-o-5gXYuguMBwGhF1Fa-5" target="s-o-5gXYuguMBwGhF1Fa-5">
          <mxGeometry relative="1" as="geometry" />
        </mxCell>
        <mxCell id="8t-ISdGKPEdPAOQoRQgy-3" value="Add Gallery" style="rounded=0;whiteSpace=wrap;html=1;" vertex="1" parent="1">
          <mxGeometry x="510" y="240" width="120" height="60" as="geometry" />
        </mxCell>
        <mxCell id="8t-ISdGKPEdPAOQoRQgy-5" value="&lt;font color=&quot;#EA6B66&quot;&gt;Authenticates Users&lt;/font&gt;" style="text;html=1;resizable=0;autosize=1;align=center;verticalAlign=middle;points=[];fillColor=none;strokeColor=none;rounded=0;" vertex="1" parent="1">
          <mxGeometry x="930" y="40" width="120" height="20" as="geometry" />
        </mxCell>
        <mxCell id="8t-ISdGKPEdPAOQoRQgy-6" value="&lt;font color=&quot;#EA6B66&quot;&gt;Authenticates Users&lt;/font&gt;" style="text;html=1;resizable=0;autosize=1;align=center;verticalAlign=middle;points=[];fillColor=none;strokeColor=none;rounded=0;" vertex="1" parent="1">
          <mxGeometry x="414" y="430" width="120" height="20" as="geometry" />
        </mxCell>
        <mxCell id="8t-ISdGKPEdPAOQoRQgy-7" value="&lt;font color=&quot;#EA6B66&quot;&gt;Owners&lt;/font&gt;" style="text;html=1;resizable=0;autosize=1;align=center;verticalAlign=middle;points=[];fillColor=none;strokeColor=none;rounded=0;" vertex="1" parent="1">
          <mxGeometry x="870" y="210" width="60" height="20" as="geometry" />
        </mxCell>
        <mxCell id="8t-ISdGKPEdPAOQoRQgy-12" value="&lt;font color=&quot;#EA6B66&quot;&gt;Owners&lt;/font&gt;" style="text;html=1;resizable=0;autosize=1;align=center;verticalAlign=middle;points=[];fillColor=none;strokeColor=none;rounded=0;" vertex="1" parent="1">
          <mxGeometry x="1301" y="200" width="60" height="20" as="geometry" />
        </mxCell>
        <mxCell id="8t-ISdGKPEdPAOQoRQgy-13" value="&lt;font color=&quot;#EA6B66&quot;&gt;Power User&lt;/font&gt;" style="text;html=1;resizable=0;autosize=1;align=center;verticalAlign=middle;points=[];fillColor=none;strokeColor=none;rounded=0;" vertex="1" parent="1">
          <mxGeometry x="1301" y="220" width="80" height="20" as="geometry" />
        </mxCell>
        <mxCell id="8t-ISdGKPEdPAOQoRQgy-14" value="&lt;font color=&quot;#EA6B66&quot;&gt;Owners&lt;/font&gt;" style="text;html=1;resizable=0;autosize=1;align=center;verticalAlign=middle;points=[];fillColor=none;strokeColor=none;rounded=0;" vertex="1" parent="1">
          <mxGeometry x="1160" y="210" width="60" height="20" as="geometry" />
        </mxCell>
        <mxCell id="8t-ISdGKPEdPAOQoRQgy-17" value="Add Piece" style="rounded=0;whiteSpace=wrap;html=1;fontColor=#EA6B66;strokeColor=#000000;fillColor=#FFFFFF;" vertex="1" parent="1">
          <mxGeometry x="1241" y="240" width="120" height="60" as="geometry" />
        </mxCell>
      </root>
    </mxGraphModel>
  </diagram>
</mxfile>
